HIERARCHY
ROOT Hips
{
	OFFSET 0.00000 0.00000 0.00000
	CHANNELS 6 Xposition Yposition Zposition Zrotation Yrotation Xrotation 
	JOINT LHipJoint
	{
		OFFSET 0 0 0
		CHANNELS 3 Zrotation Yrotation Xrotation
		JOINT LeftHip
		{
			OFFSET 1.76014 -1.80163 0.38499
			CHANNELS 3 Zrotation Yrotation Xrotation
			JOINT LeftKnee
			{
				OFFSET 2.46817 -6.78126 0.00000
				CHANNELS 3 Zrotation Yrotation Xrotation
				JOINT LeftAnkle
				{
					OFFSET 2.79348 -7.67503 0.00000
					CHANNELS 3 Zrotation Yrotation Xrotation
					JOINT LeftToe
					{
						OFFSET 0.09421 -0.25885 1.91403
						CHANNELS 3 Zrotation Yrotation Xrotation
						End Site
						{
							OFFSET 0.00000 -0.00000 0.97975
						}
					}
				}
			}
		}
	}
	JOINT RHipJoint
	{
		OFFSET 0 0 0
		CHANNELS 3 Zrotation Yrotation Xrotation
		JOINT RightHip
		{
			OFFSET -1.77926 -1.80163 0.38499
			CHANNELS 3 Zrotation Yrotation Xrotation
			JOINT RightKnee
			{
				OFFSET -2.51996 -6.92353 0.00000
				CHANNELS 3 Zrotation Yrotation Xrotation
				JOINT RightAnkle
				{
					OFFSET -2.76109 -7.58603 0.00000
					CHANNELS 3 Zrotation Yrotation Xrotation
					JOINT RightToe
					{
						OFFSET -0.08067 -0.22163 1.86812
						CHANNELS 3 Zrotation Yrotation Xrotation
						End Site
						{
							OFFSET -0.00000 -0.00000 0.95558
						}
					}
				}
			}
		}
	}
	JOINT lowerback
	{
		OFFSET 0 0 0
		CHANNELS 3 Zrotation Yrotation Xrotation
		JOINT Chest
		{
			OFFSET 0.05537 1.92033 -0.03713
			CHANNELS 3 Zrotation Yrotation Xrotation
			JOINT Chest2
			{
				OFFSET 0.04452 1.90073 0.10860
				CHANNELS 3 Zrotation Yrotation Xrotation
				JOINT lowerneck
				{
					OFFSET 0 0 0
					CHANNELS 3 Zrotation Yrotation Xrotation
					JOINT Neck
					{
						OFFSET 0.00903 1.74649 0.02074
						CHANNELS 3 Zrotation Yrotation Xrotation
						JOINT Head
						{
							OFFSET -0.08608 1.67844 -0.12081
							CHANNELS 3 Zrotation Yrotation Xrotation
							End Site
							{
								OFFSET -0.03521 1.83380 -0.05059
							}
						}
					}
				}
				JOINT LeftCollar
				{
					OFFSET 0 0 0
					CHANNELS 3 Zrotation Yrotation Xrotation
					JOINT LeftShoulder
					{
						OFFSET 3.28197 0.84325 -0.19106
CHANNELS 3 Zrotation Xrotation Yrotation
						JOINT LeftElbow
						{
OFFSET 0 -5.243180 -0.000000
CHANNELS 3 Zrotation Xrotation Yrotation
							JOINT LeftWrist
							{
OFFSET 0 -2.989990 0.000000
CHANNELS 3 Zrotation Xrotation Yrotation
								JOINT lhand
								{
									OFFSET 0 0 0
CHANNELS 3 Zrotation Xrotation Yrotation
									JOINT LFingers
									{
OFFSET 0 -0.726740 0.000000
CHANNELS 3 Zrotation Xrotation Yrotation
										End Site
										{
OFFSET 0 -0.585920 0.000000
										}
									}
								}
								JOINT LThumb
								{
OFFSET 0 0.000000 0.000000
CHANNELS 3 Zrotation Xrotation Yrotation
									End Site
									{
OFFSET 0 -0.594870 0.594870
									}
								}
							}
						}
					}
				}
				JOINT RightCollar
				{
					OFFSET 0 0 0
					CHANNELS 3 Zrotation Yrotation Xrotation
					JOINT RightShoulder
					{
						OFFSET -3.30963 0.78377 0.14264
CHANNELS 3 Zrotation Xrotation Yrotation
						JOINT RightElbow
						{
OFFSET 0 -5.370450 0.000000
CHANNELS 3 Zrotation Xrotation Yrotation
							JOINT RightWrist
							{
OFFSET 0 -2.927920 0.000000
CHANNELS 3 Zrotation Xrotation Yrotation
								JOINT rhand
								{
									OFFSET 0 0 0
CHANNELS 3 Zrotation Xrotation Yrotation
									JOINT RFingers
									{
OFFSET 0 -0.784500 0.000000
CHANNELS 3 Zrotation Xrotation Yrotation
										End Site
										{
OFFSET 0 -0.632480 0.000000
										}
									}
								}
								JOINT RThumb
								{
OFFSET 0 0.000000 0.000000
CHANNELS 3 Zrotation Xrotation Yrotation
									End Site
									{
OFFSET 0 -0.642140 0.642140
									}
								}
							}
						}
					}
				}
			}
		}
	}
}
MOTION
Frames: 12
Frame Time: 0.008333333333333333
0.401355 16.757202 0.487598 -1.072719 0.397232 15.041756 0.000000 0.000000 0.000000 -14.236482 -1.846636 -42.288461 7.901637 16.046379 52.207678 1.253078 -8.886352 -20.069561 0.838568 -5.841131 -16.324263 0.000000 0.000000 0.000000 19.245827 -6.530742 -46.652185 -7.536936 -15.767831 50.876919 -0.342447 13.762853 -13.367006 -0.056408 1.531664 -4.212973 1.741126 -1.252989 10.112620 2.200956 -1.162479 -6.789376 1.689262 -0.578696 -13.133723 2.774857 0.540889 -9.960695 -5.411915 1.437528 22.194171 -2.147652 0.357135 8.597397 0.000000 0.000000 0.000000 27.769266 38.241943 -60.279140 135.410275 -50.559799 98.076836 -26.978962 -53.773794 -33.342260 0.000000 0.000000 0.000000 -7.125000 0.000000 0.000000 -60.043123 53.599181 17.565800 0.000000 0.000000 0.000000 -26.271902 40.658498 52.171014 -146.740332 -43.525549 -106.398365 41.126586 -19.732960 2.121632 0.000000 0.000000 0.000000 7.125000 0.000000 0.000000 44.303799 25.259473 31.959524
0.379590 16.734176 0.404271 -1.255597 -0.563586 14.914407 0.000000 0.000000 0.000000 -14.023248 -1.738415 -42.598120 8.062778 16.165256 52.788378 1.314958 -7.944338 -20.506879 0.837521 -5.837707 -16.314278 0.000000 0.000000 0.000000 19.148742 -5.127958 -46.638198 -7.636339 -15.845152 51.241976 -0.398262 13.165421 -13.632503 -0.078078 1.802745 -4.960699 1.040388 -1.617141 8.137210 2.092442 -1.853570 -5.440282 1.974948 -0.880941 -10.361444 4.224086 0.449652 2.397197 -7.353791 1.105078 8.845122 -3.146534 0.503742 2.503624 0.000000 0.000000 0.000000 23.062283 31.298938 -57.915369 125.988120 -54.490719 90.590041 -31.445969 -60.731297 -34.773047 0.000000 0.000000 0.000000 -7.125000 0.000000 0.000000 -64.904016 53.574358 20.171398 0.000000 0.000000 0.000000 -22.290151 31.618446 54.330569 -141.022687 -47.452150 -102.317864 51.246089 -22.254545 1.850488 0.000000 0.000000 0.000000 7.125000 0.000000 0.000000 44.230164 16.888299 47.889838
0.329125 16.688485 0.301210 -1.390814 -0.795356 14.239165 0.000000 0.000000 0.000000 -13.600904 -1.707402 -42.588957 8.279967 16.321323 53.564740 1.342183 -7.460561 -20.712105 0.945145 -6.191270 -17.340629 0.000000 0.000000 0.000000 19.502372 -5.552013 -46.924734 -7.875832 -16.027109 52.114059 -0.339664 13.937245 -13.424942 -0.034828 1.204707 -3.312162 0.894550 -1.525261 7.758736 1.923254 -1.808939 -3.106475 1.778708 -0.877275 -7.592638 2.532146 -0.383447 11.666783 -7.672697 -0.601624 -2.461687 -2.980280 -0.031471 -2.936774 0.000000 0.000000 0.000000 25.606704 27.780427 -58.669227 126.111386 -54.448132 90.690281 -29.091250 -53.852794 -35.058389 0.000000 0.000000 0.000000 -7.125000 0.000000 0.000000 -63.507513 54.218509 20.549398 0.000000 0.000000 0.000000 -21.109358 25.615678 51.721910 -138.215629 -49.092011 -100.222529 55.353981 -21.507436 1.835416 0.000000 0.000000 0.000000 7.125000 0.000000 0.000000 43.487684 10.743639 56.543964
0.273202 16.589160 0.138464 -1.472516 -1.354717 13.100178 0.000000 0.000000 0.000000 -13.215999 -1.262459 -42.873938 8.763858 16.653332 55.269832 1.389241 -7.268873 -21.078398 0.972319 -6.277525 -17.591816 0.000000 0.000000 0.000000 19.595589 -5.747773 -47.268967 -8.286003 -16.325620 53.586386 -0.253826 14.694442 -12.983009 -0.017312 0.838201 -2.303749 0.477957 -0.545360 9.131460 2.004929 -0.578811 0.461435 1.891929 -0.275968 -4.627811 0.957990 -0.442201 12.744660 -7.529678 -1.152438 -6.430420 -2.393982 -0.162931 -4.053993 0.000000 0.000000 0.000000 30.442633 30.246254 -58.264997 129.529541 -53.182969 93.449503 -21.650776 -46.253418 -32.915577 0.000000 0.000000 0.000000 -7.125000 0.000000 0.000000 -55.451502 54.388479 16.607678 0.000000 0.000000 0.000000 -22.614493 30.400338 44.051020 -142.235386 -46.687687 -103.205728 43.518904 -16.842459 1.743907 0.000000 0.000000 0.000000 7.125000 0.000000 0.000000 44.472331 23.594053 35.409108
0.267953 16.578185 -0.027034 -2.987038 -0.589340 13.334436 0.000000 0.000000 0.000000 -11.052148 -2.750677 -43.933714 9.036007 16.830777 56.214439 1.374615 -6.480230 -20.982809 0.928530 -6.138716 -17.187315 0.000000 0.000000 0.000000 21.427737 -5.296725 -47.611377 -8.119671 -16.206586 52.992702 -0.206448 14.196030 -12.230140 -0.004095 -0.406152 1.115920 2.579771 -0.884182 10.086167 2.432444 -0.869209 3.895813 1.163868 -0.431096 -1.603013 -0.036545 -0.301689 13.231970 -6.519017 -1.193695 -8.943502 -1.931196 -0.146391 -4.896581 0.000000 0.000000 0.000000 26.816836 37.083871 -49.985738 133.171129 -51.633630 96.335751 -16.948913 -44.034381 -32.497983 0.000000 0.000000 0.000000 -7.125000 0.000000 0.000000 -51.175468 55.055569 15.618674 0.000000 0.000000 0.000000 -19.628947 36.421980 33.409302 -143.018232 -46.176514 -103.773102 33.479612 -20.052132 2.050538 0.000000 0.000000 0.000000 7.125000 0.000000 0.000000 42.029605 27.923069 24.316276
0.252174 16.619453 -0.155486 -2.356084 -0.035653 14.990568 0.000000 0.000000 0.000000 -11.477526 -4.146977 -45.602543 8.778564 16.663115 55.321241 1.258989 -5.637830 -20.097748 1.071023 -6.578551 -18.472783 0.000000 0.000000 0.000000 21.014563 -4.622168 -49.544635 -7.991588 -16.113059 52.532350 -0.192019 13.515833 -11.694761 -0.018074 -0.783325 2.153226 2.192521 -1.263619 10.495956 2.390453 -1.430700 5.166509 1.393667 -0.705442 -0.497648 -0.397991 -1.216165 13.444571 -4.867045 -2.199125 -6.966799 -1.274646 -0.773471 -4.325963 0.000000 0.000000 0.000000 16.470616 39.146957 -39.154404 134.816847 -50.857726 97.619290 -15.181492 -39.795807 -31.680397 0.000000 0.000000 0.000000 -7.125000 0.000000 0.000000 -48.880805 54.835198 14.333992 0.000000 0.000000 0.000000 -12.455592 37.985564 23.448690 -141.539687 -47.130545 -102.697737 28.983721 -20.544198 1.732966 0.000000 0.000000 0.000000 7.125000 0.000000 0.000000 39.905936 28.634814 21.108613
0.226562 16.627697 -0.225480 -2.706923 -0.233426 16.116757 0.000000 0.000000 0.000000 -11.072892 -3.127062 -47.494652 8.731781 16.632011 55.157914 1.151753 -7.396725 -19.173605 0.827751 -5.804625 -16.218674 0.000000 0.000000 0.000000 21.724843 -4.162239 -50.902299 -7.865680 -16.019550 52.077296 -0.141994 13.449663 -11.108164 -0.003333 0.331980 -0.912334 2.193087 -1.379987 10.501529 2.601076 -1.595011 5.572267 1.623780 -0.788551 -0.069903 0.044768 -1.066323 13.482661 -3.810141 -1.792781 -6.537445 -1.050069 -0.656633 -4.179634 0.000000 0.000000 0.000000 10.455458 34.573732 -32.624494 134.480773 -51.019859 97.358177 -20.106235 -40.086565 -32.917298 0.000000 0.000000 0.000000 -7.125000 0.000000 0.000000 -54.206352 54.701553 16.494957 0.000000 0.000000 0.000000 -10.446378 32.227778 22.208210 -139.637743 -48.282404 -101.290568 36.497429 -20.006657 1.328998 0.000000 0.000000 0.000000 7.125000 0.000000 0.000000 42.802236 26.373738 27.759355
0.235021 16.619946 -0.226684 -1.779266 -0.129092 17.374999 0.000000 0.000000 0.000000 -12.112909 -3.520195 -48.744471 8.671345 16.591529 54.946315 1.112487 -7.681823 -18.853528 0.796246 -5.695560 -15.903625 0.000000 0.000000 0.000000 21.042612 -4.796329 -52.952658 -8.016867 -16.131702 52.623567 -0.018532 14.397811 -10.322006 -0.004705 -0.432553 1.188488 2.331945 -1.085743 10.117019 2.526811 -1.144386 3.644723 1.436027 -0.570924 -1.873698 0.261801 -0.151219 12.555593 -4.007886 -0.575274 -7.468872 -1.237627 -0.049439 -4.292980 0.000000 0.000000 0.000000 14.719701 30.789967 -40.632370 130.212610 -52.909245 93.995534 -24.670251 -44.321641 -34.049806 0.000000 0.000000 0.000000 -7.125000 0.000000 0.000000 -59.033503 54.508777 18.579341 0.000000 0.000000 0.000000 -12.576337 29.358793 27.596099 -135.184758 -50.677504 -97.904245 43.411334 -19.898910 0.725985 0.000000 0.000000 0.000000 7.125000 0.000000 0.000000 44.045774 22.642659 36.355713
0.221575 16.553270 -0.142211 -2.344138 -0.410728 17.473453 0.000000 0.000000 0.000000 -11.339353 -3.267744 -49.178785 8.968057 16.787054 55.979480 1.191024 -7.446337 -19.500218 0.955361 -6.223452 -17.434340 0.000000 0.000000 0.000000 21.543040 -4.421532 -53.101757 -8.262338 -16.308884 53.502320 -0.009849 14.876002 -10.556144 -0.055782 -1.523928 4.191743 3.321456 -0.641710 10.871214 2.862800 -0.285884 0.739872 1.169065 -0.186506 -5.331681 1.161369 1.743288 9.446315 -5.508447 1.924183 -8.877735 -1.999243 1.224171 -4.131769 0.000000 0.000000 0.000000 20.296554 32.749928 -51.703578 129.275835 -53.283326 93.246426 -23.461860 -46.032780 -34.066434 0.000000 0.000000 0.000000 -7.125000 0.000000 0.000000 -58.104658 54.767222 18.515903 0.000000 0.000000 0.000000 -14.563703 32.406647 34.014835 -135.168402 -50.685388 -97.891522 46.354810 -18.958782 1.108841 0.000000 0.000000 0.000000 7.125000 0.000000 0.000000 44.352098 20.965087 40.230326
0.191561 16.586383 0.120286 -1.410175 0.318009 15.674124 0.000000 0.000000 0.000000 -12.614549 -2.270237 -46.073949 8.741427 16.638418 55.191613 1.211895 -8.835815 -19.739666 0.898664 -6.041573 -16.905134 0.000000 0.000000 0.000000 20.643329 -6.508603 -50.580641 -8.311787 -16.343886 53.678088 -0.066594 15.553579 -11.623168 -0.071735 -1.707136 4.697432 3.121668 -0.662992 11.605616 2.597330 -0.215156 -1.742803 1.043727 -0.183686 -8.396159 3.091770 3.673640 3.991880 -7.982153 4.558035 -7.481173 -3.355717 2.468649 -2.860997 0.000000 0.000000 0.000000 24.732740 41.017139 -56.321017 132.452284 -51.956204 95.770622 -19.078389 -47.175490 -33.477713 0.000000 0.000000 0.000000 -7.125000 0.000000 0.000000 -53.947492 55.287581 17.233719 0.000000 0.000000 0.000000 -11.994321 38.749667 29.691056 -138.896528 -48.709258 -100.735430 43.537244 -18.808790 0.502104 0.000000 0.000000 0.000000 7.125000 0.000000 0.000000 43.970119 22.341134 36.762887
0.172935 16.677889 0.456520 -1.053839 1.195543 13.988621 0.000000 0.000000 0.000000 -13.188640 -1.621956 -42.081911 8.249880 16.299983 53.457803 1.237642 -9.626319 -20.014599 0.821278 -5.782298 -16.154068 0.000000 0.000000 0.000000 20.188507 -7.857040 -46.901043 -8.038134 -16.147247 52.699853 -0.339563 14.563881 -13.737794 -0.015754 0.810691 -2.227960 3.071578 -0.654969 10.344256 2.967501 -0.149868 -4.029833 1.488848 -0.156171 -10.164544 3.665391 5.171293 1.773638 -9.641010 6.602240 -5.517436 -3.908101 3.448243 -1.600363 0.000000 0.000000 0.000000 23.812195 47.489909 -55.563152 136.302107 -50.114310 98.765112 -15.696730 -47.706708 -32.747477 0.000000 0.000000 0.000000 -7.125000 0.000000 0.000000 -50.372015 55.485458 15.842836 0.000000 0.000000 0.000000 -7.505026 43.842761 20.552136 -142.293302 -46.650897 -103.247993 40.861841 -21.971792 1.330593 0.000000 0.000000 0.000000 7.125000 0.000000 0.000000 43.920486 24.626405 32.470501
0.194711 16.777383 0.737085 -0.554184 1.672168 12.717334 0.000000 0.000000 0.000000 -14.002615 -1.783075 -38.278202 7.664793 15.867047 51.345962 1.303504 -8.853786 -20.461220 0.925295 -6.126376 -17.152059 0.000000 0.000000 0.000000 19.191313 -7.923291 -43.250099 -7.618313 -15.831222 51.175974 -0.470195 13.789454 -14.590884 -0.001800 -0.272786 0.749517 2.959458 -0.459087 7.476343 3.219130 0.051707 -5.888545 1.787813 -0.048203 -10.522248 4.206777 6.109299 0.767339 -9.477458 8.189195 -0.686017 -3.766235 4.125597 0.268472 0.000000 0.000000 0.000000 18.594553 44.337133 -51.596903 135.184704 -50.677191 97.904073 -19.336550 -49.686408 -33.173210 0.000000 0.000000 0.000000 -7.125000 0.000000 0.000000 -53.842289 55.030249 16.807321 0.000000 0.000000 0.000000 -5.707450 42.053875 19.957744 -140.498807 -47.770779 -101.930725 46.925603 -24.336547 1.383105 0.000000 0.000000 0.000000 7.125000 0.000000 0.000000 44.448366 20.774664 40.835131
